<?xml version="1.0" encoding="UTF-8"?>
<svg width="19px" height="18px" viewBox="0 0 19 18" version="1.1" xmlns="http://www.w3.org/2000/svg" xmlns:xlink="http://www.w3.org/1999/xlink">
    <!-- Generator: Sketch 51.2 (57519) - http://www.bohemiancoding.com/sketch -->
    <title>search copy 2</title>
    <desc>Created with Sketch.</desc>
    <defs></defs>
    <g id="Page-1" stroke="none" stroke-width="1" fill="none" fill-rule="evenodd">
        <g id="Spot-exchange" transform="translate(-341.000000, -33.000000)" fill="#444774" fill-rule="nonzero">
            <g id="search-copy-2" transform="translate(350.500000, 42.000000) scale(-1, 1) translate(-350.500000, -42.000000) translate(341.000000, 33.000000)">
                <path d="M15.8055895,2.22963552 C14.3679672,0.79187562 12.4563203,0 10.423037,0 C8.38975354,0 6.47810665,0.79187562 5.04034676,2.22963552 C3.60258686,3.66739542 2.81071124,5.57890471 2.81071124,7.61232572 C2.81071124,9.16525501 3.27317759,10.6470462 4.13206337,11.9012506 L0.411279957,15.6027703 C0.146128932,15.8680589 0,16.2207222 0,16.595814 C0,16.9709057 0.146128932,17.3234314 0.411279957,17.58872 C0.68523728,17.8625397 1.04491804,17.9994496 1.40459883,17.9994496 C1.76386681,17.9994496 2.12299718,17.862815 2.39612893,17.5896832 L6.11484834,13.8900899 C7.37304305,14.7573691 8.86198935,15.2245138 10.423037,15.2245138 C12.4563203,15.2245138 14.3678296,14.4327758 15.8055895,12.9948783 C17.2433494,11.5571184 18.035225,9.6456091 18.035225,7.61232572 C18.035225,5.5790423 17.2433494,3.66739542 15.8055895,2.22963552 Z M1.65007339,16.8415637 C1.51453951,16.9770976 1.29397016,16.97696 1.15843629,16.8415637 C1.09280212,16.7759295 1.05661388,16.6885549 1.05661388,16.595814 C1.05661388,16.5029354 1.09280212,16.4156984 1.15747309,16.3510274 L4.79225783,12.7348184 C4.87261497,12.8231562 4.95531127,12.9098428 5.04020917,12.9948783 C5.1197407,13.0744099 5.20078583,13.1514647 5.28320695,13.2270059 L1.65007339,16.8415637 Z M15.0584332,12.247722 C12.5025532,14.8037396 8.34352066,14.8037396 5.78736546,12.247722 C3.23134785,9.69170439 3.23134785,5.53280942 5.78736546,2.97679181 C7.0256085,1.73854881 8.67196673,1.05661388 10.4228993,1.05661388 C12.1739696,1.05661388 13.8201902,1.73854881 15.0584332,2.97679181 C17.6145884,5.53280942 17.6145884,9.69170439 15.0584332,12.247722 Z" id="Shape"></path>
            </g>
        </g>
    </g>
</svg>
