<?xml version="1.0" encoding="UTF-8"?>
<svg width="15px" height="14px" viewBox="0 0 19 18" version="1.1" xmlns="http://www.w3.org/2000/svg" xmlns:xlink="http://www.w3.org/1999/xlink">
    <!-- Generator: Sketch 51.2 (57519) - http://www.bohemiancoding.com/sketch -->
    <title>star2</title>
    <desc>Created with Sketch.</desc>
    <defs></defs>
    <g id="Page-1" stroke="none" stroke-width="1" fill="none" fill-rule="evenodd">
        <g id="Market-detail" transform="translate(-318.000000, -968.000000)" fill="currentColor" fill-rule="nonzero">
            <g id="star2" transform="translate(318.000000, 968.000000)">
                <path d="M18.8485466,6.96862848 C18.8485466,6.68919825 18.6371588,6.51554126 18.2140658,6.44749882 L12.5279802,5.62075355 L9.9793845,0.466747761 C9.83599945,0.157124948 9.65083677,0.00239289158 9.42433281,0.00239289158 C9.19786858,0.00239289158 9.01282489,0.157124948 8.86932085,0.466747761 L6.32060613,5.62075355 L0.634242733,6.44749882 C0.211467144,6.51554126 0,6.68919825 0,6.96862848 C0,7.12728834 0.0944262295,7.30852322 0.283239014,7.51241246 L4.40641191,11.5222739 L3.43227442,17.1858242 C3.41715829,17.2915975 3.40965973,17.3673368 3.40965973,17.4124472 C3.40965973,17.5710277 3.44925527,17.7050098 3.52852569,17.8145918 C3.60775644,17.9243325 3.7266224,17.9789252 3.88528226,17.9789252 C4.02128779,17.9789252 4.17225073,17.9338148 4.33836948,17.843118 L9.42421382,15.1695862 L14.5102962,17.8428403 C14.6689957,17.9335371 14.8199984,17.9789252 14.9632247,17.9789252 C15.2731649,17.9789252 15.4279763,17.7904695 15.4279763,17.4127249 C15.4279763,17.3146883 15.4241675,17.239187 15.4165896,17.1859433 L14.4425315,11.5225913 L18.5541986,7.51269017 C18.75051,7.31606145 18.8485466,7.1347472 18.8485466,6.96862848 Z" id="Shape"></path>
            </g>
        </g>
    </g>
</svg>
